<?xml version="1.0" encoding="UTF-8"?> <svg xmlns="http://www.w3.org/2000/svg" viewBox="0 0 72.42 72.42"><defs><style>.cls-1,.cls-2{fill:none;stroke-miterlimit:10;stroke-width:2px;}.cls-1{stroke:#cf112f;}.cls-2{stroke:#333;}</style></defs><g id="Capa_2" data-name="Capa 2"><g id="Capa_1-2" data-name="Capa 1"><circle class="cls-1" cx="36.21" cy="36.21" r="35.21"></circle><path class="cls-2" d="M46.21,23.42a1.63,1.63,0,0,1,1.64,1.64h0a1.63,1.63,0,0,1-1.64,1.64h0a84,84,0,0,1-18.07,0h0a1.64,1.64,0,0,1-1.64-1.64h0a1.64,1.64,0,0,1,1.64-1.64"></path><path class="cls-2" d="M44.64,26.85A8.41,8.41,0,1,0,28.77,23a8.27,8.27,0,0,0,.95,3.87A84.49,84.49,0,0,0,44.64,26.85Z"></path><line class="cls-2" x1="35.34" y1="14.57" x2="35.34" y2="20.91"></line><line class="cls-2" x1="38.55" y1="14.57" x2="38.55" y2="20.91"></line><path class="cls-2" d="M29.69,26.8a14.2,14.2,0,0,0-.14,2c0,5.72,3.42,10.36,7.63,10.36S44.8,34.5,44.8,28.78a14.2,14.2,0,0,0-.14-2"></path><path class="cls-2" d="M54.78,46a3.9,3.9,0,0,0-2.26-2.92l-4.28-1.9a24.34,24.34,0,0,1-3.67-2V50.2H29.79V39.12a24.45,24.45,0,0,1-3.68,2l-4.27,1.9A3.88,3.88,0,0,0,19.58,46L17.94,56.05H56.41Z"></path><line class="cls-2" x1="25.01" y1="56.05" x2="25.01" y2="42.02"></line><line class="cls-2" x1="49.55" y1="56.05" x2="49.55" y2="42.02"></line></g></g></svg> 