<?xml version="1.0" encoding="UTF-8"?> <svg xmlns="http://www.w3.org/2000/svg" viewBox="0 0 72.42 72.42"><defs><style>.cls-1,.cls-2{fill:none;stroke-miterlimit:10;stroke-width:2px;}.cls-1{stroke:#cf112f;}.cls-2{stroke:#333;}</style></defs><g id="Capa_2" data-name="Capa 2"><g id="Capa_1-2" data-name="Capa 1"><circle class="cls-1" cx="36.21" cy="36.21" r="35.21"></circle><path class="cls-2" d="M31.29,23.9H20.56A3.36,3.36,0,0,0,17.22,27l-.71,7.78H31.29Z"></path><path class="cls-2" d="M37.8,23.9H31.29V34.73H46.06c-3-2.95-4.78-8.77-4.78-8.77A4,4,0,0,0,37.8,23.9Z"></path><circle class="cls-2" cx="23.9" cy="47.05" r="5.42"></circle><circle class="cls-2" cx="23.9" cy="47.05" r="2.46"></circle><circle class="cls-2" cx="45.57" cy="47.05" r="5.42"></circle><path class="cls-2" d="M52.55,35.38l-6.27-.65H16.51V45a1.56,1.56,0,0,0,1.57,1.56h.43a5.41,5.41,0,0,1,10.78,0H40.18a5.41,5.41,0,0,1,10.78,0h2.3a2.65,2.65,0,0,0,2.65-2.65V39.1A3.73,3.73,0,0,0,52.55,35.38Z"></path><circle class="cls-2" cx="45.57" cy="47.05" r="2.46"></circle><line class="cls-2" x1="16.51" y1="19.96" x2="40.15" y2="19.96"></line></g></g></svg> 