<?xml version="1.0" encoding="UTF-8"?> <svg xmlns="http://www.w3.org/2000/svg" viewBox="0 0 72.42 72.42"><defs><style>.cls-1,.cls-2{fill:none;stroke-miterlimit:10;stroke-width:2px;}.cls-1{stroke:#cf112f;}.cls-2{stroke:#333;}</style></defs><g id="Capa_2" data-name="Capa 2"><g id="Capa_1-2" data-name="Capa 1"><circle class="cls-1" cx="36.21" cy="36.21" r="35.21"></circle><polyline class="cls-2" points="53.79 28.77 53.79 55.76 18.63 55.76 18.63 28.77"></polyline><polygon class="cls-2" points="48.87 16.66 23.55 16.66 15.67 28.77 30.01 28.77 36.21 22.86 42.41 28.77 56.75 28.77 48.87 16.66"></polygon><circle class="cls-2" cx="36.21" cy="32.56" r="3.36"></circle><rect class="cls-2" x="22.93" y="33.73" width="4.38" height="6.13"></rect><rect class="cls-2" x="22.93" y="44.82" width="4.38" height="6.13"></rect><rect class="cls-2" x="45.11" y="33.73" width="4.38" height="6.13"></rect><rect class="cls-2" x="45.11" y="44.82" width="4.38" height="6.13"></rect><path class="cls-2" d="M37,41.9h-1.6a4,4,0,0,0-4,4v9.85H41V45.91A4,4,0,0,0,37,41.9Z"></path><line class="cls-2" x1="15.93" y1="55.76" x2="56.49" y2="55.76"></line></g></g></svg> 