<?xml version="1.0" encoding="UTF-8"?> <svg xmlns="http://www.w3.org/2000/svg" viewBox="0 0 72.42 72.42"><defs><style>.cls-1,.cls-2{fill:none;stroke-miterlimit:10;stroke-width:2px;}.cls-1{stroke:#cf112f;}.cls-2{stroke:#333;}</style></defs><g id="Capa_2" data-name="Capa 2"><g id="Capa_1-2" data-name="Capa 1"><circle class="cls-1" cx="36.21" cy="36.21" r="35.21"></circle><path class="cls-2" d="M25.39,55.31s-2-3-2-4.93,2.95-4.92,2.95-6.89a10.23,10.23,0,0,0-1-3.94s4.92,3,4.92,4.92-2.95,7.88,1,8.87,3-3.94,2-4.93-2-3.94,0-4.92,8.87-3,5.91-7.88c0,0,4.93,3.94,3,6.89s-3,5.91-1,6.9,4.93-2,3.94-5.91,3.2,3.62,2.7,6.32-3.45,6.65-3.45,6.65,6.82,0,9.26-2.44,2.94-6.32,1.6-13.39c0,0-.93,4-2.95,4.29s-3-1.59-1.85-4.46,2.78-6.65.34-9.51A23.16,23.16,0,0,1,46.6,22s-.84,7.57-3,8.75-3.11,1.35-3.78-2.19.67-6-1.27-7.83S33.72,16,33.72,16s1.77,5.14.34,6.91S29.93,27,30.69,30.61s1,6.49-.93,5.81S27.32,35.5,26.9,34s-1.43-6.57-7.07-5.81A10,10,0,0,1,21.09,35C20.33,38.7,16,45.6,16.55,48.12S19.24,55.92,25.39,55.31Z"></path></g></g></svg> 