<?xml version="1.0" encoding="UTF-8"?> <svg xmlns="http://www.w3.org/2000/svg" viewBox="0 0 72.42 72.42"><defs><style>.cls-1,.cls-2{fill:none;stroke-miterlimit:10;stroke-width:2px;}.cls-1{stroke:#cf112f;}.cls-2{stroke:#333;}</style></defs><g id="Capa_2" data-name="Capa 2"><g id="Capa_1-2" data-name="Capa 1"><circle class="cls-1" cx="36.21" cy="36.21" r="35.21"></circle><circle class="cls-2" cx="53.65" cy="47.92" r="8.91"></circle><path class="cls-2" d="M54.63,34.33c-7.83,0-14.17,5.36-14.17,13.19H31.13"></path><circle class="cls-2" cx="53.65" cy="47.92" r="4.95"></circle><path class="cls-2" d="M34.62,47.52a12.38,12.38,0,0,0-24.75,0Z"></path><path class="cls-2" d="M17.33,47.52c0,.13,0,.26,0,.4a4.95,4.95,0,0,0,9.89,0c0-.14,0-.27,0-.4Z"></path><path class="cls-2" d="M13.36,47.52c0,.13,0,.26,0,.4a8.91,8.91,0,0,0,17.81,0c0-.14,0-.27,0-.4Z"></path><path class="cls-2" d="M22.24,35.52a12.33,12.33,0,0,1,9.61,4.6c-1-2.5-2.39-8.11,2.77-10.28H18.33a4.58,4.58,0,0,0-4.58,4.58v4.49A12.29,12.29,0,0,1,22.24,35.52Z"></path><path class="cls-2" d="M39.69,15.6H43.4a2.54,2.54,0,0,1,2.54,2.54v19"></path><path class="cls-2" d="M50.28,26h.87a1.41,1.41,0,0,0,1.41-1.41V18.77a1.41,1.41,0,0,0-1.41-1.41h-.87a4.34,4.34,0,0,0-4.34,4.34h0A4.34,4.34,0,0,0,50.28,26Z"></path><line class="cls-2" x1="49.25" y1="25.92" x2="50.88" y2="34.83"></line></g></g></svg> 