<?xml version="1.0" encoding="UTF-8"?> <svg xmlns="http://www.w3.org/2000/svg" viewBox="0 0 72.42 72.42"><defs><style>.cls-1,.cls-2{fill:none;stroke-miterlimit:10;stroke-width:2px;}.cls-1{stroke:#cf112f;}.cls-2{stroke:#333;}</style></defs><g id="Capa_2" data-name="Capa 2"><g id="Capa_1-2" data-name="Capa 1"><circle class="cls-1" cx="36.21" cy="36.21" r="35.21"></circle><path class="cls-2" d="M32.64,17.19h-15a1.21,1.21,0,0,0-1.21,1.21V53.68a1.21,1.21,0,0,0,1.21,1.21H41.8A1.22,1.22,0,0,0,43,53.68V27.24a1.23,1.23,0,0,0-.38-.88l-9.15-8.83A1.22,1.22,0,0,0,32.64,17.19Z"></path><path class="cls-2" d="M33.22,17.64v7.61a1.47,1.47,0,0,0,1.47,1.47h7.94a.16.16,0,0,0,.11-.27l-9.25-8.92A.16.16,0,0,0,33.22,17.64Z"></path><line class="cls-2" x1="21.69" y1="24.64" x2="30.36" y2="24.64"></line><line class="cls-2" x1="21.69" y1="31.75" x2="37.81" y2="31.75"></line><line class="cls-2" x1="21.69" y1="35.91" x2="37.81" y2="35.91"></line><line class="cls-2" x1="21.69" y1="40.07" x2="37.81" y2="40.07"></line><line class="cls-2" x1="21.69" y1="44.23" x2="30.27" y2="44.23"></line><path class="cls-2" d="M50.34,52.64h0a2.73,2.73,0,0,1-2.73-2.73V21.17h5.46V49.91A2.73,2.73,0,0,1,50.34,52.64Z"></path><rect class="cls-2" x="47.61" y="21.09" width="5.46" height="5.2"></rect><polyline class="cls-2" points="56.02 36.77 56.02 26.2 53.07 26.2"></polyline><line class="cls-2" x1="50.34" y1="55.24" x2="50.34" y2="52.64"></line></g></g></svg> 